<svg id="Layer_1" data-name="Layer 1" xmlns="http://www.w3.org/2000/svg" viewBox="0 0 111.22569 125.97989"><defs><style>.cls-1{fill:#fff;}</style></defs><path class="cls-1" d="M111.24609,120.82715a1.9401,1.9401,0,0,1-.98925-.28027L15.03809,65.57227a2.00383,2.00383,0,0,1,0-3.47022L110.25684,7.12744a1.94261,1.94261,0,0,1,.98925-.28027,2.02738,2.02738,0,0,1,2.01563,2.01562V118.81152A2.02739,2.02739,0,0,1,111.24609,120.82715Z" transform="translate(-8.03643 -0.84712)"/><path d="M107.26212,15.7846l0,96.10493L24.03283,63.83706,107.26212,15.7846M111.24628.84712a7.94188,7.94188,0,0,0-3.98961,1.08422L12.03826,56.9057a8.00361,8.00361,0,0,0,0,13.86269l95.21836,54.9744a7.98738,7.98738,0,0,0,12.00546-6.93136l0-109.94873A8.01322,8.01322,0,0,0,111.24628.84712Z" transform="translate(-8.03643 -0.84712)"/></svg>