<svg id="Layer_1" data-name="Layer 1" xmlns="http://www.w3.org/2000/svg" viewBox="0 0 112.14923 127.95129"><defs><style>.cls-1{fill:#fff;}</style></defs><path class="cls-1" d="M115.0166,125.47559a2.51428,2.51428,0,0,1-1.26758-.34961L11.70068,66.209a2.55026,2.55026,0,0,1,0-4.41748L113.749,2.87354a2.51362,2.51362,0,0,1,1.26758-.34913A2.56321,2.56321,0,0,1,117.57422,5.082V122.918A2.56288,2.56288,0,0,1,115.0166,125.47559Z" transform="translate(-7.92539 -0.02436)"/><path d="M115.02448,5.027a.07783.07783,0,0,1,.05014.05525l.00538,117.855a.0832.0832,0,0,1-.06019.02775.059.059,0,0,1-.0207-.00362L12.931,64.03853a.07884.07884,0,0,1,.01953-.08211L115.02448,5.027M115.01661.02436a5.01126,5.01126,0,0,0-2.51746.68414L10.45053,59.62628a5.05031,5.05031,0,0,0,0,8.74738L112.49911,127.2915a5.04,5.04,0,0,0,7.57547-4.37369l0-117.83559a5.05634,5.05634,0,0,0-5.058-5.05786Z" transform="translate(-7.92539 -0.02436)"/></svg>