<svg id="Layer_1" data-name="Layer 1" xmlns="http://www.w3.org/2000/svg" viewBox="0 0 128 128"><defs><style>.cls-1{fill:#fff;}</style></defs><path class="cls-1" d="M8.0376,6H119.9624A2.0376,2.0376,0,0,1,122,8.0376V119.96289A2.03711,2.03711,0,0,1,119.96289,122H8.03711A2.03711,2.03711,0,0,1,6,119.96289V8.0376A2.0376,2.0376,0,0,1,8.0376,6Z"/><path d="M116,12V116H12V12H116m3.96255-12H8.03745A8.03746,8.03746,0,0,0,0,8.03745v111.9251A8.03746,8.03746,0,0,0,8.03745,128h111.9251A8.03746,8.03746,0,0,0,128,119.96255V8.03745A8.03746,8.03746,0,0,0,119.96255,0Z"/></svg>